solid
facet normal -0.0 -0.0 1.0
 outer loop
  vertex -0.27696003193305524 -0.41628492731738564 0.0
  vertex -0.2499999999999998 -0.4330127018922194 0.0
  vertex -0.3028048435688333 -0.39788092026541605 0.0
 endloop
endfacet
facet normal -0.0 -0.0 1.0
 outer loop
  vertex -0.3028048435688333 -0.39788092026541605 0.0
  vertex -0.2499999999999998 -0.4330127018922194 0.0
  vertex -0.3274303669726426 -0.3778747871771291 0.0
 endloop
endfacet
facet normal -0.0 -0.0 1.0
 outer loop
  vertex -0.3274303669726426 -0.3778747871771291 0.0
  vertex -0.2499999999999998 -0.4330127018922194 0.0
  vertex -0.35073744385316064 -0.35634708568943146 0.0
 endloop
endfacet
facet normal -0.0 -0.0 1.0
 outer loop
  vertex -0.35073744385316064 -0.35634708568943146 0.0
  vertex -0.2499999999999998 -0.4330127018922194 0.0
  vertex -0.3726322248378774 -0.33338450025814576 0.0
 endloop
endfacet
facet normal -0.0 -0.0 1.0
 outer loop
  vertex -0.3726322248378774 -0.33338450025814576 0.0
  vertex -0.2499999999999998 -0.4330127018922194 0.0
  vertex -0.3930265473713937 -0.30907949311030264 0.0
 endloop
endfacet
facet normal -0.0 -0.0 1.0
 outer loop
  vertex -0.3930265473713937 -0.30907949311030264 0.0
  vertex -0.2499999999999998 -0.4330127018922194 0.0
  vertex -0.4118382907149164 -0.2835299319313853 0.0
 endloop
endfacet
facet normal -0.0 -0.0 1.0
 outer loop
  vertex -0.4118382907149164 -0.2835299319313853 0.0
  vertex -0.2499999999999998 -0.4330127018922194 0.0
  vertex -0.4289917066174885 -0.2568386957867032 0.0
 endloop
endfacet
facet normal -0.0 -0.0 1.0
 outer loop
  vertex -0.4289917066174885 -0.2568386957867032 0.0
  vertex -0.2499999999999998 -0.4330127018922194 0.0
  vertex -0.44441772432746174 -0.22911326086370515 0.0
 endloop
endfacet
facet normal -0.0 -0.0 1.0
 outer loop
  vertex -0.44441772432746174 -0.22911326086370515 0.0
  vertex -0.2499999999999998 -0.4330127018922194 0.0
  vertex -0.4580542287160348 -0.2004652677033069 0.0
 endloop
endfacet
facet normal -0.0 -0.0 1.0
 outer loop
  vertex -0.4580542287160348 -0.2004652677033069 0.0
  vertex -0.2499999999999998 -0.4330127018922194 0.0
  vertex -0.4698463103929542 -0.17101007166283433 0.0
 endloop
endfacet
facet normal -0.0 -0.0 1.0
 outer loop
  vertex -0.4698463103929542 -0.17101007166283433 0.0
  vertex -0.2499999999999998 -0.4330127018922194 0.0
  vertex -0.4797464868072487 -0.14086627842071492 0.0
 endloop
endfacet
facet normal -0.0 -0.0 1.0
 outer loop
  vertex -0.4797464868072487 -0.14086627842071492 0.0
  vertex -0.2499999999999998 -0.4330127018922194 0.0
  vertex -0.4877148934427035 -0.11015526639327028 0.0
 endloop
endfacet
facet normal -0.0 -0.0 1.0
 outer loop
  vertex -0.4877148934427035 -0.11015526639327028 0.0
  vertex -0.2499999999999998 -0.4330127018922194 0.0
  vertex -0.49371944433819714 -0.07900069798667504 0.0
 endloop
endfacet
facet normal -0.0 -0.0 1.0
 outer loop
  vertex -0.49371944433819714 -0.07900069798667504 0.0
  vertex -0.2499999999999998 -0.4330127018922194 0.0
  vertex -0.4977359612865423 -0.047528021652091315 0.0
 endloop
endfacet
facet normal -0.0 -0.0 1.0
 outer loop
  vertex -0.4977359612865423 -0.047528021652091315 0.0
  vertex -0.2499999999999998 -0.4330127018922194 0.0
  vertex -0.49974827119159254 -0.01586396674903393 0.0
 endloop
endfacet
facet normal -0.0 0.0 1.0
 outer loop
  vertex -0.49974827119159254 -0.01586396674903393 0.0
  vertex -0.2499999999999998 -0.4330127018922194 0.0
  vertex -0.49974827119159254 0.015863966749033828 0.0
 endloop
endfacet
facet normal -0.0 0.0 1.0
 outer loop
  vertex -0.49974827119159254 0.015863966749033828 0.0
  vertex -0.2499999999999998 -0.4330127018922194 0.0
  vertex -0.4977359612865423 0.04752802165209122 0.0
 endloop
endfacet
facet normal -0.0 0.0 1.0
 outer loop
  vertex -0.4977359612865423 0.04752802165209122 0.0
  vertex -0.2499999999999998 -0.4330127018922194 0.0
  vertex -0.49371944433819714 0.07900069798667494 0.0
 endloop
endfacet
facet normal -0.0 0.0 1.0
 outer loop
  vertex -0.49371944433819714 0.07900069798667494 0.0
  vertex -0.2499999999999998 -0.4330127018922194 0.0
  vertex -0.4877148934427035 0.1101552663932704 0.0
 endloop
endfacet
facet normal -0.0 0.0 1.0
 outer loop
  vertex -0.4877148934427035 0.1101552663932704 0.0
  vertex -0.2499999999999998 -0.4330127018922194 0.0
  vertex -0.4797464868072487 0.14086627842071484 0.0
 endloop
endfacet
facet normal -0.0 0.0 1.0
 outer loop
  vertex -0.4797464868072487 0.14086627842071484 0.0
  vertex -0.2499999999999998 -0.4330127018922194 0.0
  vertex -0.46984631039295416 0.17101007166283444 0.0
 endloop
endfacet
facet normal -0.0 0.0 1.0
 outer loop
  vertex -0.46984631039295416 0.17101007166283444 0.0
  vertex -0.2499999999999998 -0.4330127018922194 0.0
  vertex -0.4580542287160348 0.2004652677033068 0.0
 endloop
endfacet
facet normal -0.0 0.0 1.0
 outer loop
  vertex -0.4580542287160348 0.2004652677033068 0.0
  vertex -0.2499999999999998 -0.4330127018922194 0.0
  vertex -0.4444177243274617 0.22911326086370526 0.0
 endloop
endfacet
facet normal -0.0 0.0 1.0
 outer loop
  vertex -0.4444177243274617 0.22911326086370526 0.0
  vertex -0.2499999999999998 -0.4330127018922194 0.0
  vertex -0.42899170661748853 0.25683869578670315 0.0
 endloop
endfacet
facet normal -0.0 0.0 1.0
 outer loop
  vertex -0.42899170661748853 0.25683869578670315 0.0
  vertex -0.2499999999999998 -0.4330127018922194 0.0
  vertex -0.41183829071491634 0.2835299319313854 0.0
 endloop
endfacet
facet normal -0.0 0.0 1.0
 outer loop
  vertex -0.41183829071491634 0.2835299319313854 0.0
  vertex -0.2499999999999998 -0.4330127018922194 0.0
  vertex -0.39302654737139375 0.3090794931103026 0.0
 endloop
endfacet
facet normal -0.0 0.0 1.0
 outer loop
  vertex -0.39302654737139375 0.3090794931103026 0.0
  vertex -0.2499999999999998 -0.4330127018922194 0.0
  vertex -0.37263222483787733 0.3333845002581458 0.0
 endloop
endfacet
facet normal -0.0 0.0 1.0
 outer loop
  vertex -0.37263222483787733 0.3333845002581458 0.0
  vertex -0.2499999999999998 -0.4330127018922194 0.0
  vertex -0.3507374438531607 0.35634708568943135 0.0
 endloop
endfacet
facet normal -0.0 0.0 1.0
 outer loop
  vertex -0.3507374438531607 0.35634708568943135 0.0
  vertex -0.2499999999999998 -0.4330127018922194 0.0
  vertex -0.3274303669726425 0.37787478717712913 0.0
 endloop
endfacet
facet normal -0.0 -0.0 1.0
 outer loop
  vertex -0.2499999999999998 -0.4330127018922194 0.0
  vertex -0.22203330630288698 -0.447996887145668 0.0
  vertex -0.3274303669726425 0.37787478717712913 0.0
 endloop
endfacet
facet normal -0.0 -0.0 1.0
 outer loop
  vertex -0.22203330630288698 -0.447996887145668 0.0
  vertex -0.19317256284656434 -0.4611771470522907 0.0
  vertex -0.3274303669726425 0.37787478717712913 0.0
 endloop
endfacet
facet normal -0.0 -0.0 1.0
 outer loop
  vertex -0.19317256284656434 -0.4611771470522907 0.0
  vertex -0.16353398165871094 -0.4725004093573342 0.0
  vertex -0.3274303669726425 0.37787478717712913 0.0
 endloop
endfacet
facet normal -0.0 -0.0 1.0
 outer loop
  vertex -0.16353398165871094 -0.4725004093573342 0.0
  vertex -0.13323690684501732 -0.4819210792799711 0.0
  vertex -0.3274303669726425 0.37787478717712913 0.0
 endloop
endfacet
facet normal -0.0 -0.0 1.0
 outer loop
  vertex -0.13323690684501732 -0.4819210792799711 0.0
  vertex -0.10240333403259527 -0.48940122310738937 0.0
  vertex -0.3274303669726425 0.37787478717712913 0.0
 endloop
endfacet
facet normal -0.0 -0.0 1.0
 outer loop
  vertex -0.10240333403259527 -0.48940122310738937 0.0
  vertex -0.07115741913664261 -0.49491072094046634 0.0
  vertex -0.3274303669726425 0.37787478717712913 0.0
 endloop
endfacet
facet normal -0.0 -0.0 1.0
 outer loop
  vertex -0.07115741913664261 -0.49491072094046634 0.0
  vertex -0.039624978428394395 -0.49842738797597114 0.0
  vertex -0.3274303669726425 0.37787478717712913 0.0
 endloop
endfacet
facet normal -0.0 -0.0 1.0
 outer loop
  vertex -0.039624978428394395 -0.49842738797597114 0.0
  vertex -0.007932981917403804 -0.49993706383693753 0.0
  vertex -0.3274303669726425 0.37787478717712913 0.0
 endloop
endfacet
facet normal 0.0 -0.0 1.0
 outer loop
  vertex -0.007932981917403804 -0.49993706383693753 0.0
  vertex 0.02379095791187119 -0.499433669591504 0.0
  vertex -0.3274303669726425 0.37787478717712913 0.0
 endloop
endfacet
facet normal 0.0 -0.0 1.0
 outer loop
  vertex 0.02379095791187119 -0.499433669591504 0.0
  vertex 0.05541909995050543 -0.49691923223062706 0.0
  vertex -0.3274303669726425 0.37787478717712913 0.0
 endloop
endfacet
facet normal 0.0 -0.0 1.0
 outer loop
  vertex 0.05541909995050543 -0.49691923223062706 0.0
  vertex 0.08682408883346499 -0.49240387650610407 0.0
  vertex -0.3274303669726425 0.37787478717712913 0.0
 endloop
endfacet
facet normal 0.0 -0.0 1.0
 outer loop
  vertex 0.08682408883346499 -0.49240387650610407 0.0
  vertex 0.11787946775471374 -0.4859057841617708 0.0
  vertex -0.3274303669726425 0.37787478717712913 0.0
 endloop
endfacet
facet normal 0.0 -0.0 1.0
 outer loop
  vertex 0.11787946775471374 -0.4859057841617708 0.0
  vertex 0.14846018766413746 -0.47745112072203694 0.0
  vertex -0.3274303669726425 0.37787478717712913 0.0
 endloop
endfacet
facet normal 0.0 -0.0 1.0
 outer loop
  vertex 0.14846018766413746 -0.47745112072203694 0.0
  vertex 0.17844311079593583 -0.4670739301325534 0.0
  vertex -0.3274303669726425 0.37787478717712913 0.0
 endloop
endfacet
facet normal 0.0 -0.0 1.0
 outer loop
  vertex 0.17844311079593583 -0.4670739301325534 0.0
  vertex 0.2077075065009434 -0.4548159976772591 0.0
  vertex -0.3274303669726425 0.37787478717712913 0.0
 endloop
endfacet
facet normal 0.0 -0.0 1.0
 outer loop
  vertex 0.2077075065009434 -0.4548159976772591 0.0
  vertex 0.23613553738634144 -0.440726681723791 0.0
  vertex -0.3274303669726425 0.37787478717712913 0.0
 endloop
endfacet
facet normal 0.0 -0.0 1.0
 outer loop
  vertex 0.23613553738634144 -0.440726681723791 0.0
  vertex 0.2636127338052512 -0.4248627149747572 0.0
  vertex -0.3274303669726425 0.37787478717712913 0.0
 endloop
endfacet
facet normal 0.0 -0.0 1.0
 outer loop
  vertex 0.2636127338052512 -0.4248627149747572 0.0
  vertex 0.29002845478559897 -0.4072879760251679 0.0
  vertex -0.3274303669726425 0.37787478717712913 0.0
 endloop
endfacet
facet normal 0.0 -0.0 1.0
 outer loop
  vertex 0.29002845478559897 -0.4072879760251679 0.0
  vertex 0.3152763335422614 -0.3880732321458783 0.0
  vertex -0.3274303669726425 0.37787478717712913 0.0
 endloop
endfacet
facet normal 0.0 -0.0 1.0
 outer loop
  vertex 0.3152763335422614 -0.3880732321458783 0.0
  vertex 0.33925470577856615 -0.36729585432876655 0.0
  vertex -0.3274303669726425 0.37787478717712913 0.0
 endloop
endfacet
facet normal -0.0 0.0 1.0
 outer loop
  vertex -0.3274303669726425 0.37787478717712913 0.0
  vertex 0.33925470577856615 -0.36729585432876655 0.0
  vertex -0.3028048435688334 0.397880920265416 0.0
 endloop
endfacet
facet normal -0.0 0.0 1.0
 outer loop
  vertex -0.3028048435688334 0.397880920265416 0.0
  vertex 0.33925470577856615 -0.36729585432876655 0.0
  vertex -0.27696003193305513 0.4162849273173857 0.0
 endloop
endfacet
facet normal -0.0 0.0 1.0
 outer loop
  vertex -0.27696003193305513 0.4162849273173857 0.0
  vertex 0.33925470577856615 -0.36729585432876655 0.0
  vertex -0.2500000000000001 0.4330127018922193 0.0
 endloop
endfacet
facet normal -0.0 0.0 1.0
 outer loop
  vertex -0.2500000000000001 0.4330127018922193 0.0
  vertex 0.33925470577856615 -0.36729585432876655 0.0
  vertex -0.22203330630288706 0.44799688714566793 0.0
 endloop
endfacet
facet normal -0.0 0.0 1.0
 outer loop
  vertex -0.22203330630288706 0.44799688714566793 0.0
  vertex 0.33925470577856615 -0.36729585432876655 0.0
  vertex -0.19317256284656434 0.4611771470522907 0.0
 endloop
endfacet
facet normal -0.0 0.0 1.0
 outer loop
  vertex -0.19317256284656434 0.4611771470522907 0.0
  vertex 0.33925470577856615 -0.36729585432876655 0.0
  vertex -0.16353398165871083 0.47250040935733423 0.0
 endloop
endfacet
facet normal -0.0 0.0 1.0
 outer loop
  vertex -0.16353398165871083 0.47250040935733423 0.0
  vertex 0.33925470577856615 -0.36729585432876655 0.0
  vertex -0.13323690684501752 0.481921079279971 0.0
 endloop
endfacet
facet normal -0.0 0.0 1.0
 outer loop
  vertex -0.13323690684501752 0.481921079279971 0.0
  vertex 0.33925470577856615 -0.36729585432876655 0.0
  vertex -0.10240333403259537 0.48940122310738937 0.0
 endloop
endfacet
facet normal -0.0 0.0 1.0
 outer loop
  vertex -0.10240333403259537 0.48940122310738937 0.0
  vertex 0.33925470577856615 -0.36729585432876655 0.0
  vertex -0.07115741913664261 0.49491072094046634 0.0
 endloop
endfacet
facet normal -0.0 0.0 1.0
 outer loop
  vertex -0.07115741913664261 0.49491072094046634 0.0
  vertex 0.33925470577856615 -0.36729585432876655 0.0
  vertex -0.03962497842839427 0.4984273879759712 0.0
 endloop
endfacet
facet normal -0.0 0.0 1.0
 outer loop
  vertex -0.03962497842839427 0.4984273879759712 0.0
  vertex 0.33925470577856615 -0.36729585432876655 0.0
  vertex -0.007932981917404014 0.49993706383693753 0.0
 endloop
endfacet
facet normal 0.0 0.0 1.0
 outer loop
  vertex -0.007932981917404014 0.49993706383693753 0.0
  vertex 0.33925470577856615 -0.36729585432876655 0.0
  vertex 0.02379095791187109 0.499433669591504 0.0
 endloop
endfacet
facet normal 0.0 0.0 1.0
 outer loop
  vertex 0.02379095791187109 0.499433669591504 0.0
  vertex 0.33925470577856615 -0.36729585432876655 0.0
  vertex 0.05541909995050555 0.49691923223062706 0.0
 endloop
endfacet
facet normal 0.0 0.0 1.0
 outer loop
  vertex 0.05541909995050555 0.49691923223062706 0.0
  vertex 0.33925470577856615 -0.36729585432876655 0.0
  vertex 0.08682408883346521 0.492403876506104 0.0
 endloop
endfacet
facet normal 0.0 0.0 1.0
 outer loop
  vertex 0.08682408883346521 0.492403876506104 0.0
  vertex 0.33925470577856615 -0.36729585432876655 0.0
  vertex 0.11787946775471364 0.4859057841617708 0.0
 endloop
endfacet
facet normal 0.0 0.0 1.0
 outer loop
  vertex 0.11787946775471364 0.4859057841617708 0.0
  vertex 0.33925470577856615 -0.36729585432876655 0.0
  vertex 0.14846018766413746 0.47745112072203694 0.0
 endloop
endfacet
facet normal 0.0 0.0 1.0
 outer loop
  vertex 0.14846018766413746 0.47745112072203694 0.0
  vertex 0.33925470577856615 -0.36729585432876655 0.0
  vertex 0.17844311079593594 0.4670739301325533 0.0
 endloop
endfacet
facet normal 0.0 0.0 1.0
 outer loop
  vertex 0.17844311079593594 0.4670739301325533 0.0
  vertex 0.33925470577856615 -0.36729585432876655 0.0
  vertex 0.20770750650094322 0.45481599767725917 0.0
 endloop
endfacet
facet normal 0.0 0.0 1.0
 outer loop
  vertex 0.20770750650094322 0.45481599767725917 0.0
  vertex 0.33925470577856615 -0.36729585432876655 0.0
  vertex 0.23613553738634135 0.44072668172379104 0.0
 endloop
endfacet
facet normal 0.0 0.0 1.0
 outer loop
  vertex 0.23613553738634135 0.44072668172379104 0.0
  vertex 0.33925470577856615 -0.36729585432876655 0.0
  vertex 0.2636127338052512 0.4248627149747572 0.0
 endloop
endfacet
facet normal 0.0 0.0 1.0
 outer loop
  vertex 0.2636127338052512 0.4248627149747572 0.0
  vertex 0.33925470577856615 -0.36729585432876655 0.0
  vertex 0.2900284547855991 0.40728797602516786 0.0
 endloop
endfacet
facet normal 0.0 0.0 1.0
 outer loop
  vertex 0.2900284547855991 0.40728797602516786 0.0
  vertex 0.33925470577856615 -0.36729585432876655 0.0
  vertex 0.31527633354226126 0.3880732321458784 0.0
 endloop
endfacet
facet normal 0.0 0.0 1.0
 outer loop
  vertex 0.31527633354226126 0.3880732321458784 0.0
  vertex 0.33925470577856615 -0.36729585432876655 0.0
  vertex 0.3392547057785661 0.36729585432876666 0.0
 endloop
endfacet
facet normal 0.0 0.0 1.0
 outer loop
  vertex 0.3392547057785661 0.36729585432876666 0.0
  vertex 0.33925470577856615 -0.36729585432876655 0.0
  vertex 0.3618670190525351 0.345039505741056 0.0
 endloop
endfacet
facet normal 0.0 0.0 1.0
 outer loop
  vertex 0.3618670190525351 0.345039505741056 0.0
  vertex 0.33925470577856615 -0.36729585432876655 0.0
  vertex 0.383022221559489 0.3213938048432696 0.0
 endloop
endfacet
facet normal 0.0 0.0 1.0
 outer loop
  vertex 0.383022221559489 0.3213938048432696 0.0
  vertex 0.33925470577856615 -0.36729585432876655 0.0
  vertex 0.4026351287655293 0.2964539645273202 0.0
 endloop
endfacet
facet normal 0.0 0.0 1.0
 outer loop
  vertex 0.4026351287655293 0.2964539645273202 0.0
  vertex 0.33925470577856615 -0.36729585432876655 0.0
  vertex 0.4206267664155906 0.2703204087277988 0.0
 endloop
endfacet
facet normal 0.0 0.0 1.0
 outer loop
  vertex 0.4206267664155906 0.2703204087277988 0.0
  vertex 0.33925470577856615 -0.36729585432876655 0.0
  vertex 0.43692468853489247 0.24309836805023435 0.0
 endloop
endfacet
facet normal 0.0 0.0 1.0
 outer loop
  vertex 0.43692468853489247 0.24309836805023435 0.0
  vertex 0.33925470577856615 -0.36729585432876655 0.0
  vertex 0.4514632691433106 0.21489745604458582 0.0
 endloop
endfacet
facet normal 0.0 0.0 1.0
 outer loop
  vertex 0.4514632691433106 0.21489745604458582 0.0
  vertex 0.33925470577856615 -0.36729585432876655 0.0
  vertex 0.4641839665080363 0.1858312278301638 0.0
 endloop
endfacet
facet normal 0.0 0.0 1.0
 outer loop
  vertex 0.4641839665080363 0.1858312278301638 0.0
  vertex 0.33925470577856615 -0.36729585432876655 0.0
  vertex 0.4750355588704727 0.15601672284924356 0.0
 endloop
endfacet
facet normal 0.0 0.0 1.0
 outer loop
  vertex 0.4750355588704727 0.15601672284924356 0.0
  vertex 0.33925470577856615 -0.36729585432876655 0.0
  vertex 0.4839743506981781 0.1255739935905396 0.0
 endloop
endfacet
facet normal 0.0 0.0 1.0
 outer loop
  vertex 0.4839743506981781 0.1255739935905396 0.0
  vertex 0.33925470577856615 -0.36729585432876655 0.0
  vertex 0.49096434863135335 0.09462562218020511 0.0
 endloop
endfacet
facet normal 0.0 0.0 1.0
 outer loop
  vertex 0.49096434863135335 0.09462562218020511 0.0
  vertex 0.33925470577856615 -0.36729585432876655 0.0
  vertex 0.49597740641539767 0.06329622678687463 0.0
 endloop
endfacet
facet normal 0.0 0.0 1.0
 outer loop
  vertex 0.49597740641539767 0.06329622678687463 0.0
  vertex 0.33925470577856615 -0.36729585432876655 0.0
  vertex 0.4989933382359422 0.03171195982828225 0.0
 endloop
endfacet
facet normal 0.0 0.0 1.0
 outer loop
  vertex 0.4989933382359422 0.03171195982828225 0.0
  vertex 0.33925470577856615 -0.36729585432876655 0.0
  vertex 0.5 -1.2246467991473532e-16 0.0
 endloop
endfacet
facet normal 0.0 0.0 1.0
 outer loop
  vertex 0.5 -1.2246467991473532e-16 0.0
  vertex 0.33925470577856615 -0.36729585432876655 0.0
  vertex 0.4989933382359422 -0.03171195982828226 0.0
 endloop
endfacet
facet normal 0.0 0.0 1.0
 outer loop
  vertex 0.33925470577856615 -0.36729585432876655 0.0
  vertex 0.36186701905253504 -0.345039505741056 0.0
  vertex 0.4989933382359422 -0.03171195982828226 0.0
 endloop
endfacet
facet normal 0.0 0.0 1.0
 outer loop
  vertex 0.36186701905253504 -0.345039505741056 0.0
  vertex 0.3830222215594889 -0.3213938048432698 0.0
  vertex 0.4989933382359422 -0.03171195982828226 0.0
 endloop
endfacet
facet normal 0.0 0.0 1.0
 outer loop
  vertex 0.3830222215594889 -0.3213938048432698 0.0
  vertex 0.40263512876552937 -0.2964539645273201 0.0
  vertex 0.4989933382359422 -0.03171195982828226 0.0
 endloop
endfacet
facet normal 0.0 0.0 1.0
 outer loop
  vertex 0.40263512876552937 -0.2964539645273201 0.0
  vertex 0.4206267664155906 -0.2703204087277987 0.0
  vertex 0.4989933382359422 -0.03171195982828226 0.0
 endloop
endfacet
facet normal 0.0 0.0 1.0
 outer loop
  vertex 0.4989933382359422 -0.03171195982828226 0.0
  vertex 0.4206267664155906 -0.2703204087277987 0.0
  vertex 0.49597740641539767 -0.06329622678687452 0.0
 endloop
endfacet
facet normal 0.0 0.0 1.0
 outer loop
  vertex 0.49597740641539767 -0.06329622678687452 0.0
  vertex 0.4206267664155906 -0.2703204087277987 0.0
  vertex 0.4909643486313534 -0.09462562218020487 0.0
 endloop
endfacet
facet normal 0.0 0.0 1.0
 outer loop
  vertex 0.4909643486313534 -0.09462562218020487 0.0
  vertex 0.4206267664155906 -0.2703204087277987 0.0
  vertex 0.4839743506981781 -0.1255739935905397 0.0
 endloop
endfacet
facet normal 0.0 0.0 1.0
 outer loop
  vertex 0.4839743506981781 -0.1255739935905397 0.0
  vertex 0.4206267664155906 -0.2703204087277987 0.0
  vertex 0.4750355588704727 -0.15601672284924353 0.0
 endloop
endfacet
facet normal 0.0 0.0 1.0
 outer loop
  vertex 0.4206267664155906 -0.2703204087277987 0.0
  vertex 0.4369246885348924 -0.2430983680502344 0.0
  vertex 0.4750355588704727 -0.15601672284924353 0.0
 endloop
endfacet
facet normal 0.0 0.0 1.0
 outer loop
  vertex 0.4369246885348924 -0.2430983680502344 0.0
  vertex 0.45146326914331053 -0.21489745604458596 0.0
  vertex 0.4750355588704727 -0.15601672284924353 0.0
 endloop
endfacet
facet normal 0.0 -0.0 1.0
 outer loop
  vertex 0.46418396650803634 -0.18583122783016362 0.0
  vertex 0.4750355588704727 -0.15601672284924353 0.0
  vertex 0.45146326914331053 -0.21489745604458596 0.0
 endloop
endfacet
endsolid
